<svg width="34" height="24" viewBox="0 0 34 24" fill="none" xmlns="http://www.w3.org/2000/svg">
<path fill-rule="evenodd" clip-rule="evenodd" d="M10 4H24C28.4183 4 32 7.58172 32 12C32 16.4183 28.4183 20 24 20H10C5.58172 20 2 16.4183 2 12C2 7.58172 5.58172 4 10 4ZM0 12C0 6.47715 4.47715 2 10 2H24C29.5228 2 34 6.47715 34 12C34 17.5228 29.5228 22 24 22H10C4.47715 22 0 17.5228 0 12ZM5 12C5 9.23858 7.23858 7 10 7C12.7614 7 15 9.23858 15 12C15 14.7614 12.7614 17 10 17C7.23858 17 5 14.7614 5 12Z" fill="#999999"/>
</svg>
