<svg width="257" height="256" viewBox="0 0 257 256" fill="none" xmlns="http://www.w3.org/2000/svg">
<path d="M108.683 85.0851C121.325 103.655 140.442 105.159 140.442 105.159C177.019 87.8186 185.014 49.6358 185.014 49.6358C167.537 54.146 151.136 31.4926 151.136 31.4926C145.704 59.9033 108.683 85.0851 108.683 85.0851Z" fill="white"/>
<path d="M113.808 92.3971C120.3 98.8207 128.705 103.468 137.708 105.176C138.409 105.313 139.143 105.449 139.861 105.501C140.425 105.535 140.852 105.33 141.364 105.091C142.56 104.51 143.739 103.912 144.901 103.28C149.291 100.888 153.443 98.069 157.304 94.8743C163.949 89.3732 169.655 82.813 174.302 75.5694C177.804 70.1366 180.726 64.3281 183.015 58.2803C183.75 56.3498 184.416 54.4023 184.997 52.4205C185.168 51.8226 185.338 51.2076 185.492 50.5925C185.561 50.3021 185.731 49.9263 185.731 49.6358C185.731 49.6017 185.748 49.5504 185.766 49.5162C185.834 49.1575 185.099 49.2941 184.945 49.3283C178.3 51.0025 171.552 48.4229 166.051 44.784C161.506 41.7772 157.491 37.9845 153.955 33.8502C153.22 32.996 152.503 32.1247 151.854 31.2193C151.632 30.9118 150.487 31.2534 150.419 31.5951C147.924 44.4423 139.775 55.6323 131.028 65.0285C128.671 67.5569 126.211 70 123.682 72.3405C123.426 72.5796 123.904 72.6651 124.058 72.6651C124.4 72.6651 124.793 72.5284 125.049 72.2892C134.428 63.5593 143.295 53.5139 148.557 41.7259C150.043 38.4116 151.205 34.9436 151.888 31.3559C151.41 31.4755 150.931 31.6122 150.453 31.7318C152.435 34.4652 154.809 36.9937 157.235 39.3171C161.916 43.7931 167.451 47.8591 173.773 49.6529C177.48 50.7121 181.358 50.8317 185.099 49.8921C184.826 49.8237 184.553 49.7725 184.279 49.7042C183.288 54.4535 181.443 59.1004 179.462 63.508C174.832 73.8439 168.306 83.3767 160.088 91.1841C154.177 96.8048 147.378 101.452 140.015 104.954C140.322 104.886 140.63 104.817 140.92 104.766C139.109 104.629 137.315 104.185 135.573 103.707C131.216 102.494 127.031 100.632 123.204 98.2057C120.317 96.3777 117.652 94.2251 115.226 91.8162C114.884 91.5429 113.5 92.0896 113.808 92.3971Z" fill="#1A1E22"/>
<path d="M154.708 89.6291C145.978 90.2612 137.983 84.8627 131.884 79.1737C131.456 78.7808 130.056 79.3616 130.517 79.7887C136.992 85.8365 145.312 91.2521 154.554 90.5858C155.323 90.5175 155.733 89.5608 154.708 89.6291Z" fill="#1A1E22"/>
<path d="M162.463 81.9075C152.486 82.6421 143.534 75.7402 136.973 68.9578C136.666 68.6332 135.265 69.1628 135.589 69.5045C142.372 76.526 151.563 83.3938 161.865 82.6421C162.121 82.625 162.736 82.5396 162.856 82.2663C162.941 81.9758 162.753 81.8733 162.463 81.9075Z" fill="#1A1E22"/>
<path d="M174.353 62.8076C164.479 63.5251 155.578 56.7257 149.086 49.9946C148.591 49.4821 147.19 50.1142 147.737 50.6609C154.587 57.7508 163.847 64.7039 174.234 63.9523C175.088 63.8839 175.361 62.7222 174.353 62.8076Z" fill="#1A1E22"/>
<path d="M168.546 72.4939C158.586 73.2285 149.6 66.2924 143.04 59.5101C142.766 59.2196 141.382 59.7492 141.639 60.0397C148.421 67.0783 157.595 73.9119 167.897 73.1431C168.136 73.126 168.785 73.0406 168.888 72.7843C169.007 72.511 168.819 72.4768 168.546 72.4939Z" fill="#1A1E22"/>
<path d="M123.445 88.7661C101.27 92.405 87.0048 79.592 87.0048 79.592C74.3626 41.1359 96.5206 9.03506 96.5206 9.03506C105.302 24.8036 133.012 21.0793 133.012 21.0793C116.15 44.5869 123.445 88.7661 123.445 88.7661Z" fill="white"/>
<path d="M123.514 88.2707C114.152 89.7741 104.517 88.527 95.9405 84.4439C93.5829 83.3164 91.2937 82.0009 89.1753 80.4462C88.714 80.1046 88.1673 79.7629 87.7573 79.3529C87.6548 79.2504 87.7744 79.4383 87.7231 79.3187C87.6206 79.1308 87.5865 78.8745 87.5181 78.6695C87.0569 77.2174 86.6298 75.7481 86.2539 74.2789C83.6059 63.9089 83.213 53.0606 84.853 42.4856C86.0831 34.5244 88.4236 26.717 91.7208 19.3709C92.78 16.9962 93.9417 14.6728 95.223 12.4177C95.821 11.3585 96.5897 10.3505 97.1364 9.27425C97.1535 9.223 97.2048 9.17175 97.2389 9.13758C96.7777 9.22301 96.3164 9.30843 95.8551 9.39385C99.2719 15.4587 105.661 18.8242 112.205 20.4643C117.774 21.8481 123.6 22.2069 129.323 21.9164C130.536 21.8481 131.749 21.7798 132.944 21.626C132.739 21.4381 132.534 21.2501 132.312 21.0793C125.479 30.6634 122.797 42.7247 121.703 54.2394C120.798 63.8748 120.986 73.6126 121.977 83.2309C122.182 85.1614 122.387 87.0919 122.711 89.0053C122.814 89.6203 124.3 89.2616 124.197 88.6124C123.309 83.2309 122.933 77.7299 122.745 72.2972C122.352 61.1584 122.967 49.7975 125.803 38.9833C127.461 32.6793 129.938 26.512 133.73 21.1818C134.021 20.7889 133.355 20.601 133.098 20.6351C129.938 21.0622 126.692 21.0964 123.514 20.9597C117.261 20.7035 110.752 19.6272 105.217 16.535C101.903 14.6899 99.084 12.0931 97.2048 8.76173C96.9314 8.28338 96.043 8.6934 95.821 9.01799C93.9759 11.7002 92.4725 14.6557 91.0887 17.5942C87.706 24.7353 85.2289 32.3206 83.7938 40.0938C81.8633 50.5151 81.8633 61.2951 84.0672 71.6821C84.3918 73.1855 84.7505 74.6889 85.1605 76.1752C85.3485 76.8586 85.5535 77.542 85.7585 78.2253C85.9122 78.7378 86.0147 79.5408 86.3393 79.9679C86.5443 80.2583 86.9543 80.4975 87.2448 80.7025C89.0728 82.1205 91.0545 83.3505 93.1046 84.4439C101.049 88.6466 110.103 90.5087 119.055 89.8254C120.507 89.7229 121.942 89.5349 123.377 89.3128C123.651 89.2616 124.18 89.1078 124.197 88.7491C124.197 88.3391 123.805 88.2195 123.514 88.2707Z" fill="#1A1E22"/>
<path d="M87.4491 59.2616C92.6939 65.651 101.219 68.094 109.146 68.8969C111.145 69.1019 113.161 69.2045 115.159 69.2045C115.484 69.2045 115.996 69.119 116.133 68.7603C116.253 68.4528 116.031 68.1794 115.689 68.1794C108.292 68.1282 100.382 67.069 93.9923 63.1225C92.0276 61.9096 90.285 60.4062 88.8158 58.6294C88.4058 58.1169 86.9878 58.6978 87.4491 59.2616Z" fill="#1A1E22"/>
<path d="M87.9283 48.3798C93.156 54.7692 101.698 57.1781 109.608 57.981C111.607 58.186 113.623 58.2885 115.621 58.2885C115.912 58.2885 116.476 58.186 116.595 57.8785C116.715 57.571 116.493 57.4002 116.185 57.4002C108.788 57.3489 100.878 56.2726 94.4886 52.3091C92.5239 51.0961 90.7642 49.5757 89.3121 47.7989C88.9533 47.3548 87.5354 47.8844 87.9283 48.3798Z" fill="#1A1E22"/>
<path d="M93.2411 26.5464C98.4688 32.9358 107.045 35.3276 114.955 36.0964C116.937 36.2843 118.935 36.3868 120.917 36.4039C121.173 36.4039 121.788 36.3014 121.908 36.011C122.028 35.7205 121.806 35.6351 121.515 35.6351C114.084 35.5839 106.088 34.4905 99.6989 30.4416C97.7855 29.2286 96.06 27.7252 94.6078 25.9826C94.3345 25.6239 92.9165 26.1364 93.2411 26.5464Z" fill="#1A1E22"/>
<path d="M90.5757 37.4624C95.8035 43.8518 104.38 46.2607 112.29 47.0295C114.271 47.2174 116.27 47.3199 118.252 47.337C118.525 47.337 119.123 47.2345 119.226 46.944C119.345 46.6536 119.123 46.534 118.833 46.534C111.418 46.4828 103.525 45.3894 97.1189 41.4259C95.1543 40.2129 93.3946 38.6925 91.9254 36.8986C91.652 36.5057 90.2341 37.0182 90.5757 37.4624Z" fill="#1A1E22"/>
<path d="M43.7992 184.444C34.8643 179.661 26.9544 173.049 20.6675 165.088C14.3122 157.041 9.66539 147.662 7.17112 137.719C4.57435 127.367 4.26684 116.433 6.29984 105.96C8.24741 95.8807 12.3476 86.2795 18.2586 77.8912C24.1014 69.5884 31.6696 62.5669 40.3654 57.3221C41.4587 56.6729 42.5521 56.0408 43.6796 55.4428C44.0726 55.2207 45.4564 55.8187 44.8755 56.1262C36.026 60.8756 28.2015 67.4358 22 75.3116C15.7302 83.2898 11.1517 92.5664 8.6916 102.407C6.09483 112.691 5.8044 123.54 7.82032 133.961C9.73373 143.921 13.7826 153.437 19.6083 161.74C25.3998 169.991 32.9167 177.013 41.5612 182.223C42.6204 182.855 43.6796 183.453 44.773 184.034C45.0293 184.171 45.1489 184.376 44.9097 184.581C44.6022 184.803 44.0042 184.564 43.7992 184.444Z" fill="#1A1E22"/>
<path d="M37.0681 53.4262C39.6136 54.0242 42.1762 54.605 44.7217 55.203C44.9609 55.2542 45.4392 55.4763 45.3538 55.8009C44.7559 58.3464 44.175 60.909 43.5771 63.4545C43.4575 64.0012 41.9712 63.6083 42.0908 63.0616C42.6887 60.5161 43.2696 57.9535 43.8675 55.408C44.0725 55.613 44.2946 55.8009 44.4996 56.0059C41.9541 55.408 39.3915 54.8271 36.846 54.2292C35.9405 53.99 36.1626 53.2041 37.0681 53.4262Z" fill="#1A1E22"/>
<path d="M213.015 182.259C221.95 177.475 229.86 170.847 236.147 162.903C242.502 154.856 247.132 145.46 249.643 135.517C252.24 125.164 252.548 114.23 250.515 103.758C248.567 93.6781 244.467 84.0598 238.556 75.6716C232.713 67.3687 225.145 60.3301 216.449 55.0853C215.356 54.4361 214.262 53.804 213.135 53.2061C212.708 52.9669 211.341 53.599 211.956 53.9236C220.805 58.673 228.63 65.2161 234.831 73.1089C241.101 81.0872 245.68 90.3467 248.14 100.187C250.72 110.472 251.027 121.32 249.011 131.741C247.098 141.701 243.049 151.217 237.223 159.52C231.432 167.771 223.915 174.793 215.27 179.987C214.211 180.619 213.152 181.217 212.058 181.797C211.785 181.934 211.683 182.19 211.939 182.378C212.212 182.617 212.776 182.395 213.015 182.259Z" fill="#1A1E22"/>
<path d="M219.832 183.984C217.286 183.386 214.724 182.805 212.178 182.207C212.281 182.344 212.4 182.498 212.503 182.634C213.101 180.089 213.681 177.526 214.279 174.981C214.45 174.28 212.93 174.451 212.776 175.1C212.178 177.646 211.597 180.208 210.999 182.754C210.948 182.942 211.153 183.147 211.324 183.181C213.869 183.779 216.432 184.36 218.977 184.958C219.319 185.043 219.797 184.992 220.02 184.684C220.208 184.428 220.207 184.069 219.832 183.984Z" fill="#1A1E22"/>
<path d="M93.8728 146.567V230.09C93.8728 232.123 95.5299 233.763 97.5629 233.763H172.818C174.851 233.763 176.508 232.123 176.508 230.09V217.072L176.44 209.897C176.466 178.109 174.344 160.5 176.508 128.5C176.508 126.467 174.783 126.903 172.75 126.903H113.536L93.8728 146.549V146.567Z" fill="#F8F8F8"/>
<path fill-rule="evenodd" clip-rule="evenodd" d="M176.44 209.897C176.449 198.726 176.193 189.306 175.951 180.398C175.504 163.956 175.104 149.255 176.508 128.5C176.508 126.785 175.28 126.827 173.675 126.882C173.378 126.892 173.067 126.903 172.75 126.903H113.536L93.8728 146.549V230.09C93.8728 232.123 95.5299 233.763 97.5629 233.763H172.818C174.851 233.763 176.508 232.123 176.508 230.09V217.072L176.44 209.897ZM175.508 230.09C175.508 231.565 174.305 232.763 172.818 232.763H97.5629C96.0762 232.763 94.8728 231.565 94.8728 230.09V146.964L113.95 127.903H172.75C173.079 127.903 173.43 127.891 173.743 127.88C173.915 127.875 174.076 127.869 174.215 127.866C174.655 127.857 174.962 127.87 175.184 127.917C175.288 127.939 175.348 127.964 175.381 127.982C175.409 127.997 175.418 128.007 175.422 128.013C175.427 128.019 175.504 128.117 175.508 128.469C174.104 149.247 174.505 164.017 174.952 180.483C175.194 189.386 175.449 198.784 175.44 209.896L175.508 217.072V230.09Z" fill="#1A1E22"/>
<path d="M158.502 224.623H84.6989C82.2559 224.623 80.2742 222.641 80.2742 220.198C80.2742 180.873 81.8435 158.5 80.2742 119.5C80.2742 117.057 82.2559 117.728 84.6989 117.728C114.844 119.5 129.68 117.728 158.502 117.728C160.945 117.728 162.928 117.728 162.928 119.5C161.844 159.5 162.927 180.873 162.927 220.198C162.927 222.641 160.945 224.623 158.502 224.623Z" fill="white"/>
<path fill-rule="evenodd" clip-rule="evenodd" d="M84.6989 223.623H158.502C160.393 223.623 161.927 222.089 161.927 220.198C161.927 206.402 161.793 194.809 161.667 183.838C161.433 163.576 161.224 145.441 161.928 119.488C161.926 119.255 161.866 119.177 161.836 119.144C161.787 119.089 161.663 118.996 161.364 118.913C160.725 118.737 159.778 118.728 158.502 118.728C148.427 118.728 140.044 118.946 132.104 119.153C117.416 119.535 104.242 119.877 84.669 118.728C84.1909 118.727 83.7206 118.702 83.3079 118.68C83.1755 118.673 83.0491 118.666 82.9302 118.66C82.3979 118.635 82.0207 118.635 81.7398 118.683C81.477 118.729 81.4197 118.796 81.4036 118.816C81.3766 118.85 81.2768 119.004 81.2742 119.481C82.2921 144.79 81.9891 163.132 81.6508 183.614C81.4676 194.7 81.2742 206.414 81.2742 220.198C81.2742 222.089 82.8082 223.623 84.6989 223.623ZM80.2742 119.5C80.2742 117.516 81.5813 117.586 83.3811 117.682C83.7974 117.704 84.24 117.728 84.6989 117.728C104.25 118.877 117.362 118.536 132.026 118.154C139.972 117.947 148.373 117.728 158.502 117.728C160.945 117.728 162.928 117.728 162.928 119.5C162.224 145.443 162.433 163.551 162.667 183.803C162.793 194.776 162.927 206.378 162.927 220.198C162.927 222.641 160.945 224.623 158.502 224.623H84.6989C82.2559 224.623 80.2742 222.641 80.2742 220.198C80.2742 206.378 80.468 194.652 80.6513 183.563C80.9895 163.095 81.292 144.795 80.2742 119.5Z" fill="#1A1E22"/>
<path d="M143.492 138.122C143.455 138.122 143.437 138.122 143.401 138.122C134.128 136.347 123.15 136.643 112.553 136.919C108.216 137.037 104.115 137.136 100.25 137.116C99.9412 137.116 99.7053 136.84 99.7053 136.525C99.7053 136.209 99.9594 135.933 100.25 135.933C104.097 135.973 108.179 135.854 112.516 135.736C123.186 135.46 134.219 135.164 143.582 136.958C143.873 137.018 144.072 137.313 144.018 137.648C143.981 137.905 143.764 138.122 143.492 138.122Z" fill="#1A1E22"/>
<path d="M136.487 151.825C136.469 151.825 136.433 151.825 136.415 151.825C129.41 150.839 123.059 150.8 116.327 150.76C112.407 150.74 108.361 150.721 104.133 150.484C103.824 150.464 103.607 150.188 103.625 149.873C103.643 149.538 103.897 149.301 104.187 149.321C108.397 149.558 112.426 149.577 116.345 149.597C123.114 149.636 129.483 149.676 136.56 150.681C136.85 150.721 137.068 151.016 137.032 151.352C136.995 151.608 136.759 151.825 136.487 151.825Z" fill="#1A1E22"/>
<path d="M179.105 184.715H135.917C134.584 184.715 133.32 184.134 132.466 183.126L120.558 169.151C119.704 168.143 118.44 167.562 117.107 167.562H77.6943C75.1829 167.562 73.1499 169.595 73.1499 172.107V241.434C73.1499 243.945 75.1829 245.978 77.6943 245.978H179.088C181.599 245.978 183.632 243.945 183.632 241.434V189.242C183.632 186.748 181.599 184.715 179.105 184.715Z" fill="#FFD400"/>
<path d="M179.173 184.185C174.321 184.185 169.469 184.185 164.617 184.185C156.878 184.185 149.122 184.185 141.383 184.185C139.624 184.185 137.847 184.236 136.07 184.185C134.686 184.134 133.678 183.416 132.807 182.408C131.919 181.366 131.03 180.324 130.142 179.282C127.665 176.361 125.17 173.456 122.693 170.535C122.13 169.869 121.583 169.151 120.951 168.536C119.806 167.409 118.354 167.033 116.799 167.033C110.7 167.033 104.584 167.033 98.4853 167.033C91.8738 167.033 85.2622 167.033 78.6507 167.033C77.899 167.033 77.1644 167.016 76.4298 167.204C74.1576 167.785 72.4492 169.8 72.4151 172.158C72.398 173.217 72.4151 174.276 72.4151 175.336C72.4151 181.503 72.4151 187.687 72.4151 193.855C72.4151 202.089 72.4151 210.324 72.4151 218.541C72.4151 224.913 72.4151 231.286 72.4151 237.658C72.4151 238.888 72.398 240.135 72.4151 241.365C72.4492 244.44 74.8581 246.456 77.8307 246.456C81.0254 246.456 84.2201 246.456 87.3977 246.456C94.0434 246.456 100.672 246.456 107.318 246.456C115.552 246.456 123.77 246.456 132.004 246.456C139.931 246.456 147.875 246.456 155.802 246.456C161.628 246.456 167.453 246.456 173.279 246.456C174.834 246.456 176.371 246.456 177.926 246.456C179.703 246.456 181.377 246.268 182.778 244.953C184.486 243.347 184.401 241.348 184.401 239.264C184.401 236.599 184.401 233.951 184.401 231.286C184.401 223.273 184.401 215.261 184.401 207.266C184.401 201.508 184.401 195.751 184.401 189.994C184.401 189.635 184.418 189.276 184.401 188.917C184.281 186.218 182.026 184.219 179.378 184.151C179.053 184.151 178.541 184.236 178.404 184.595C178.285 184.92 178.507 185.193 178.848 185.193C181.138 185.244 182.863 187.055 182.897 189.327C182.897 189.789 182.897 190.267 182.897 190.728C182.897 193.137 182.897 195.546 182.897 197.972C182.897 205.745 182.897 213.518 182.897 221.275C182.897 227.442 182.897 233.609 182.897 239.777C182.897 240.289 182.897 240.802 182.897 241.314C182.88 243.245 181.684 245.124 179.651 245.363C178.917 245.448 178.131 245.38 177.379 245.38C172.989 245.38 168.598 245.38 164.19 245.38C156.981 245.38 149.771 245.38 142.562 245.38C134.396 245.38 126.213 245.38 118.046 245.38C110.564 245.38 103.098 245.38 95.6151 245.38C90.695 245.38 85.7748 245.38 80.8546 245.38C79.8808 245.38 78.907 245.397 77.9161 245.38C75.4389 245.329 73.9014 243.262 73.9014 240.904C73.9014 236.531 73.9014 232.14 73.9014 227.766C73.9014 219.959 73.9014 212.152 73.9014 204.327C73.9014 196.844 73.9014 189.362 73.9014 181.879C73.9014 178.582 73.833 175.267 73.9014 171.953C73.9526 169.749 75.4902 168.041 77.7282 168.007C78.3603 167.99 78.9753 168.007 79.6074 168.007C82.5971 168.007 85.5697 168.007 88.5595 168.007C96.2302 168.007 103.901 168.007 111.555 168.007C113.348 168.007 115.159 167.938 116.953 168.007C118.371 168.058 119.379 168.827 120.25 169.852C121.156 170.911 122.044 171.97 122.95 173.012C125.41 175.899 127.887 178.787 130.347 181.691C130.877 182.306 131.389 182.972 131.953 183.553C133.08 184.732 134.55 185.159 136.138 185.159C141.776 185.159 147.397 185.159 153.034 185.159C160.398 185.159 167.761 185.159 175.124 185.159C176.423 185.159 177.721 185.159 179.036 185.159C179.856 185.227 180.181 184.185 179.173 184.185Z" fill="#1A1E22"/>
</svg>
