<svg width="192" height="24" viewBox="0 0 192 24" fill="none" xmlns="http://www.w3.org/2000/svg">
<path d="M10.6 13.8L8.45 11.65C8.26667 11.4667 8.03333 11.375 7.75 11.375C7.46667 11.375 7.23333 11.4667 7.05 11.65C6.86667 11.8333 6.775 12.0667 6.775 12.35C6.775 12.6333 6.86667 12.8667 7.05 13.05L9.9 15.9C10.1 16.1 10.3333 16.2 10.6 16.2C10.8667 16.2 11.1 16.1 11.3 15.9L16.95 10.25C17.1333 10.0667 17.225 9.83333 17.225 9.55C17.225 9.26667 17.1333 9.03333 16.95 8.85C16.7667 8.66667 16.5333 8.575 16.25 8.575C15.9667 8.575 15.7333 8.66667 15.55 8.85L10.6 13.8ZM12 22C10.6167 22 9.31667 21.7375 8.1 21.2125C6.88333 20.6875 5.825 19.975 4.925 19.075C4.025 18.175 3.3125 17.1167 2.7875 15.9C2.2625 14.6833 2 13.3833 2 12C2 10.6167 2.2625 9.31667 2.7875 8.1C3.3125 6.88333 4.025 5.825 4.925 4.925C5.825 4.025 6.88333 3.3125 8.1 2.7875C9.31667 2.2625 10.6167 2 12 2C13.3833 2 14.6833 2.2625 15.9 2.7875C17.1167 3.3125 18.175 4.025 19.075 4.925C19.975 5.825 20.6875 6.88333 21.2125 8.1C21.7375 9.31667 22 10.6167 22 12C22 13.3833 21.7375 14.6833 21.2125 15.9C20.6875 17.1167 19.975 18.175 19.075 19.075C18.175 19.975 17.1167 20.6875 15.9 21.2125C14.6833 21.7375 13.3833 22 12 22ZM12 20C14.2333 20 16.125 19.225 17.675 17.675C19.225 16.125 20 14.2333 20 12C20 9.76667 19.225 7.875 17.675 6.325C16.125 4.775 14.2333 4 12 4C9.76667 4 7.875 4.775 6.325 6.325C4.775 7.875 4 9.76667 4 12C4 14.2333 4.775 16.125 6.325 17.675C7.875 19.225 9.76667 20 12 20Z" fill="#0CDC40"/>
<path d="M26.725 21.0591C26.5417 21.0591 26.375 21.0132 26.225 20.9216C26.075 20.8299 25.9583 20.7091 25.875 20.5591C25.7917 20.4091 25.7458 20.2466 25.7375 20.0716C25.7292 19.8966 25.775 19.7257 25.875 19.5591L35.125 3.55908C35.225 3.39242 35.3542 3.26742 35.5125 3.18408C35.6708 3.10075 35.8333 3.05908 36 3.05908C36.1667 3.05908 36.3292 3.10075 36.4875 3.18408C36.6458 3.26742 36.775 3.39242 36.875 3.55908L46.125 19.5591C46.225 19.7257 46.2708 19.8966 46.2625 20.0716C46.2542 20.2466 46.2083 20.4091 46.125 20.5591C46.0417 20.7091 45.925 20.8299 45.775 20.9216C45.625 21.0132 45.4583 21.0591 45.275 21.0591H26.725ZM28.45 19.0591H43.55L36 6.05908L28.45 19.0591ZM36 18.0591C36.2833 18.0591 36.5208 17.9632 36.7125 17.7716C36.9042 17.5799 37 17.3424 37 17.0591C37 16.7757 36.9042 16.5382 36.7125 16.3466C36.5208 16.1549 36.2833 16.0591 36 16.0591C35.7167 16.0591 35.4792 16.1549 35.2875 16.3466C35.0958 16.5382 35 16.7757 35 17.0591C35 17.3424 35.0958 17.5799 35.2875 17.7716C35.4792 17.9632 35.7167 18.0591 36 18.0591ZM36 15.0591C36.2833 15.0591 36.5208 14.9632 36.7125 14.7716C36.9042 14.5799 37 14.3424 37 14.0591V11.0591C37 10.7757 36.9042 10.5382 36.7125 10.3466C36.5208 10.1549 36.2833 10.0591 36 10.0591C35.7167 10.0591 35.4792 10.1549 35.2875 10.3466C35.0958 10.5382 35 10.7757 35 11.0591V14.0591C35 14.3424 35.0958 14.5799 35.2875 14.7716C35.4792 14.9632 35.7167 15.0591 36 15.0591Z" fill="#FFD500"/>
<path d="M64 3C64.3446 3 64.6649 3.17755 64.8476 3.46973L69.8477 11.4697C70.0503 11.794 70.0503 12.206 69.8477 12.5303L64.8476 20.5303C64.6649 20.8224 64.3446 21 64 21H56C55.6553 21 55.3351 20.8224 55.1523 20.5303L50.1523 12.5303C49.9497 12.206 49.9497 11.794 50.1523 11.4697L55.1523 3.46973L55.2266 3.36621C55.415 3.13615 55.6982 3 56 3H64ZM52.1787 12L56.5537 19H63.4463L67.8203 12L63.4463 5H56.5537L52.1787 12Z" fill="#FF3E33"/>
<path d="M59 7H61V13H59V7Z" fill="#FF3E33"/>
<path d="M61.0607 14.4393C60.4749 13.8536 59.5251 13.8536 58.9393 14.4393C58.3535 15.0251 58.3535 15.9749 58.9393 16.5607C59.5251 17.1464 60.4749 17.1464 61.0607 16.5607C61.6464 15.9749 61.6464 15.0251 61.0607 14.4393Z" fill="#FF3E33"/>
<path d="M87 12C87 13.6569 85.6569 15 84 15C82.3431 15 81 13.6569 81 12C81 10.3431 82.3431 9 84 9C85.6569 9 87 10.3431 87 12Z" fill="#404040"/>
<g opacity="0.5">
<path d="M106.6 13.8L104.45 11.65C104.267 11.4667 104.034 11.375 103.75 11.375C103.467 11.375 103.234 11.4667 103.05 11.65C102.867 11.8333 102.775 12.0667 102.775 12.35C102.775 12.6333 102.867 12.8667 103.05 13.05L105.9 15.9C106.1 16.1 106.334 16.2 106.6 16.2C106.867 16.2 107.1 16.1 107.3 15.9L112.95 10.25C113.134 10.0667 113.225 9.83333 113.225 9.55C113.225 9.26667 113.134 9.03333 112.95 8.85C112.767 8.66667 112.534 8.575 112.25 8.575C111.967 8.575 111.734 8.66667 111.55 8.85L106.6 13.8ZM108 22C106.617 22 105.317 21.7375 104.1 21.2125C102.884 20.6875 101.825 19.975 100.925 19.075C100.025 18.175 99.3127 17.1167 98.7877 15.9C98.2627 14.6833 98.0002 13.3833 98.0002 12C98.0002 10.6167 98.2627 9.31667 98.7877 8.1C99.3127 6.88333 100.025 5.825 100.925 4.925C101.825 4.025 102.884 3.3125 104.1 2.7875C105.317 2.2625 106.617 2 108 2C109.384 2 110.684 2.2625 111.9 2.7875C113.117 3.3125 114.175 4.025 115.075 4.925C115.975 5.825 116.688 6.88333 117.213 8.1C117.738 9.31667 118 10.6167 118 12C118 13.3833 117.738 14.6833 117.213 15.9C116.688 17.1167 115.975 18.175 115.075 19.075C114.175 19.975 113.117 20.6875 111.9 21.2125C110.684 21.7375 109.384 22 108 22ZM108 20C110.234 20 112.125 19.225 113.675 17.675C115.225 16.125 116 14.2333 116 12C116 9.76667 115.225 7.875 113.675 6.325C112.125 4.775 110.234 4 108 4C105.767 4 103.875 4.775 102.325 6.325C100.775 7.875 100 9.76667 100 12C100 14.2333 100.775 16.125 102.325 17.675C103.875 19.225 105.767 20 108 20Z" fill="#404040"/>
</g>
<g opacity="0.5">
<path d="M122.725 21.0591C122.542 21.0591 122.375 21.0132 122.225 20.9216C122.075 20.8299 121.958 20.7091 121.875 20.5591C121.792 20.4091 121.746 20.2466 121.738 20.0716C121.729 19.8966 121.775 19.7257 121.875 19.5591L131.125 3.55908C131.225 3.39242 131.354 3.26742 131.513 3.18408C131.671 3.10075 131.833 3.05908 132 3.05908C132.167 3.05908 132.329 3.10075 132.488 3.18408C132.646 3.26742 132.775 3.39242 132.875 3.55908L142.125 19.5591C142.225 19.7257 142.271 19.8966 142.263 20.0716C142.254 20.2466 142.208 20.4091 142.125 20.5591C142.042 20.7091 141.925 20.8299 141.775 20.9216C141.625 21.0132 141.458 21.0591 141.275 21.0591H122.725ZM124.45 19.0591H139.55L132 6.05908L124.45 19.0591ZM132 18.0591C132.283 18.0591 132.521 17.9632 132.713 17.7716C132.904 17.5799 133 17.3424 133 17.0591C133 16.7757 132.904 16.5382 132.713 16.3466C132.521 16.1549 132.283 16.0591 132 16.0591C131.717 16.0591 131.479 16.1549 131.288 16.3466C131.096 16.5382 131 16.7757 131 17.0591C131 17.3424 131.096 17.5799 131.288 17.7716C131.479 17.9632 131.717 18.0591 132 18.0591ZM132 15.0591C132.283 15.0591 132.521 14.9632 132.713 14.7716C132.904 14.5799 133 14.3424 133 14.0591V11.0591C133 10.7757 132.904 10.5382 132.713 10.3466C132.521 10.1549 132.283 10.0591 132 10.0591C131.717 10.0591 131.479 10.1549 131.288 10.3466C131.096 10.5382 131 10.7757 131 11.0591V14.0591C131 14.3424 131.096 14.5799 131.288 14.7716C131.479 14.9632 131.717 15.0591 132 15.0591Z" fill="#404040"/>
</g>
<g opacity="0.5">
<path d="M160 3C160.345 3 160.665 3.17755 160.848 3.46973L165.848 11.4697C166.05 11.794 166.05 12.206 165.848 12.5303L160.848 20.5303C160.665 20.8224 160.345 21 160 21H152C151.655 21 151.335 20.8224 151.152 20.5303L146.152 12.5303C145.95 12.206 145.95 11.794 146.152 11.4697L151.152 3.46973L151.227 3.36621C151.415 3.13615 151.698 3 152 3H160ZM148.179 12L152.554 19H159.446L163.82 12L159.446 5H152.554L148.179 12Z" fill="#404040"/>
<path d="M155 7H157V13H155V7Z" fill="#404040"/>
<path d="M157.061 14.4393C156.475 13.8536 155.525 13.8536 154.939 14.4393C154.353 15.0251 154.353 15.9749 154.939 16.5607C155.525 17.1464 156.475 17.1464 157.061 16.5607C157.646 15.9749 157.646 15.0251 157.061 14.4393Z" fill="#404040"/>
</g>
<path opacity="0.5" d="M183 12C183 13.6569 181.657 15 180 15C178.343 15 177 13.6569 177 12C177 10.3431 178.343 9 180 9C181.657 9 183 10.3431 183 12Z" fill="#404040"/>
</svg>
