<svg width="24" height="24" viewBox="0 0 24 24" fill="none" xmlns="http://www.w3.org/2000/svg">
<path d="M18.9748 13.6399H20.9865C20.9462 14.2946 20.7645 14.8758 20.4415 15.3834C20.1231 15.8911 19.6768 16.2875 19.1026 16.5725C18.5329 16.8575 17.8467 17 17.0437 17C16.4158 17 15.8528 16.8931 15.3549 16.6794C14.857 16.4611 14.4309 16.1494 14.0765 15.7442C13.7267 15.3389 13.4598 14.849 13.2759 14.2745C13.092 13.7001 13 13.0566 13 12.344V11.6693C13 10.9568 13.0942 10.3133 13.2826 9.73881C13.4755 9.15988 13.7491 8.66778 14.1034 8.26253C14.4623 7.85727 14.8907 7.54554 15.3886 7.32732C15.8865 7.10911 16.4427 7 17.0572 7C17.8736 7 18.5621 7.14696 19.1228 7.44088C19.688 7.7348 20.1253 8.14006 20.4348 8.65665C20.7488 9.17324 20.9372 9.76108 21 10.4202H18.9815C18.9591 10.0283 18.8806 9.6965 18.746 9.42485C18.6114 9.14874 18.4073 8.94166 18.1337 8.80361C17.8646 8.6611 17.5057 8.58985 17.0572 8.58985C16.7208 8.58985 16.427 8.65219 16.1758 8.77689C15.9246 8.90158 15.7138 9.09085 15.5433 9.34469C15.3729 9.59853 15.245 9.91917 15.1598 10.3066C15.0791 10.6896 15.0387 11.1394 15.0387 11.656V12.344C15.0387 12.8472 15.0768 13.2904 15.1531 13.6733C15.2293 14.0519 15.3459 14.3725 15.5029 14.6353C15.6644 14.8936 15.8708 15.0895 16.122 15.2231C16.3776 15.3523 16.6849 15.4168 17.0437 15.4168C17.4654 15.4168 17.813 15.35 18.0866 15.2164C18.3602 15.0828 18.5688 14.8847 18.7124 14.6219C18.8604 14.3592 18.9479 14.0318 18.9748 13.6399Z" fill="#0CDC40"/>
<path d="M7.71774 8.71016L5.10484 17H3L6.56965 7H7.90909L7.71774 8.71016ZM9.88856 17L7.26906 8.71016L7.05792 7H8.41056L12 17H9.88856ZM9.76979 13.2775V14.8915H4.69575V13.2775H9.76979Z" fill="#0CDC40"/>
</svg>
